<?xml version="1.0" standalone="no"?>
<!DOCTYPE svg PUBLIC "-//W3C//DTD SVG 20010904//EN"
 "http://www.w3.org/TR/2001/REC-SVG-20010904/DTD/svg10.dtd">
<svg version="1.0" xmlns="http://www.w3.org/2000/svg"
 width="168.000000pt" height="168.000000pt" viewBox="0 0 168.000000 168.000000"
 preserveAspectRatio="xMidYMid meet">

<g transform="translate(0.000000,168.000000) scale(0.100000,-0.100000)"
fill="#000000" stroke="none">
<path d="M0 1407 l0 -273 64 -80 c237 -301 648 -437 1026 -341 216 55 412 184
546 358 l44 57 0 276 0 276 -840 0 -840 0 0 -273z"/>
<path d="M0 345 l0 -345 840 0 840 0 0 340 c0 187 -2 340 -5 340 -2 0 -34 -22
-70 -49 -136 -102 -368 -201 -545 -232 -108 -19 -345 -17 -452 4 -188 38 -375
118 -525 227 l-83 59 0 -344z"/>
</g>
</svg>
